# xmcd CD database file generated by Grip 3.2.0
# 
# Track frame offsets:
#       182
#       10900
#       22592
#       33852
#       44505
#       59217
#       72805
#       88025
#       104360
#       117062
#       134320
#       151112
# 
# Disc length: 2201 seconds
# 
# Revision: 3
# Processed by: cddbd v1.5.2PL0 Copyright (c) Steve Scherf et al.
# Submitted via: Grip 3.2.0
# 
DISCID=9108970c
DTITLE=Etta James - The Sweetest Peaches - Part Two (1967-1975)
DYEAR=1900
DGENRE=Blues
TTITLE0=Tell Mama
TTITLE1=I'd Rather Go Blind
TTITLE2=Security
TTITLE3=Miss Pitiful
TTITLE4=W.O.M.A.N.
TTITLE5=Losers, Weepers, Part One
TTITLE6=You Can Leave Your Hat On
TTITLE7=God's Song (That's Why I Love Mankind)
TTITLE8=Feeling Uneasy
TTITLE9=Lovin' Arms
TTITLE10=Let's Burn Down The Cornfield
TTITLE11=Gonna Have Some Fun Tonight
EXTD=
EXTT0=
EXTT1=
EXTT2=
EXTT3=
EXTT4=
EXTT5=
EXTT6=
EXTT7=
EXTT8=
EXTT9=
EXTT10=
EXTT11=
PLAYORDER=
